<svg id="epCUhxaHQKF1" xmlns="http://www.w3.org/2000/svg" xmlns:xlink="http://www.w3.org/1999/xlink" viewBox="0 0 80 500" shape-rendering="geometricPrecision" text-rendering="geometricPrecision"><defs><linearGradient id="epCUhxaHQKF2-stroke" x1="23.999978" y1="0" x2="22.499984" y2="485" spreadMethod="pad" gradientUnits="userSpaceOnUse" gradientTransform="translate(0 0)"><stop id="epCUhxaHQKF2-stroke-0" offset="5.15742%" stop-color="#000"/><stop id="epCUhxaHQKF2-stroke-1" offset="22.5992%" stop-color="#309ad5"/><stop id="epCUhxaHQKF2-stroke-2" offset="47.249%" stop-color="#309ad5"/><stop id="epCUhxaHQKF2-stroke-3" offset="50%" stop-color="rgba(70,114,156,0)"/><stop id="epCUhxaHQKF2-stroke-4" offset="56.1417%" stop-color="#309ad5"/><stop id="epCUhxaHQKF2-stroke-5" offset="79.1714%" stop-color="#309ad5"/><stop id="epCUhxaHQKF2-stroke-6" offset="95.6186%" stop-color="#000"/></linearGradient><linearGradient id="epCUhxaHQKF3-stroke" x1="23.999978" y1="0" x2="22.499984" y2="485" spreadMethod="pad" gradientUnits="userSpaceOnUse" gradientTransform="translate(0 0)"><stop id="epCUhxaHQKF3-stroke-0" offset="5.15742%" stop-color="#000"/><stop id="epCUhxaHQKF3-stroke-1" offset="22.5992%" stop-color="#309ad5"/><stop id="epCUhxaHQKF3-stroke-2" offset="47.249%" stop-color="#309ad5"/><stop id="epCUhxaHQKF3-stroke-3" offset="50%" stop-color="rgba(70,114,156,0)"/><stop id="epCUhxaHQKF3-stroke-4" offset="56.1417%" stop-color="#309ad5"/><stop id="epCUhxaHQKF3-stroke-5" offset="79.1714%" stop-color="#309ad5"/><stop id="epCUhxaHQKF3-stroke-6" offset="95.6186%" stop-color="#000"/></linearGradient></defs><path d="M2.00026,0v33.649577c-.806964,31.475133-.00017,49.018649,0,78.544893v0c-.357547,28.763337,0,56.13621,0,80.137077v113.643182c0,27.786-.00017,48.167802,0,70.854271v0c.003263,26.656499-.00004,47.378-.0001,75.164L2.00009,485" transform="matrix(-1 0 0 1 61.673738 0)" fill="none" stroke="url(#epCUhxaHQKF2-stroke)" stroke-width="3"/><path d="M2.00026,0L2.00014,33.5188C2.00005,61.0048,12.3542,87.4821,31.0001,107.676v0C49.6458,127.871,60,154.348,60,181.834v119.831c0,27.786-10.3371,54.578-28.9999,75.164v0C12.3373,397.414,2.00022,424.207,2.00016,451.993L2.00009,485" transform="matrix(-.999994 0 0 1 62.031103 0)" fill="none" stroke="url(#epCUhxaHQKF3-stroke)" stroke-width="3"/></svg>
